<?xml version="1.0" encoding="UTF-8"?>
<svg width="25px" height="25px" viewBox="0 0 25 25" version="1.1" xmlns="http://www.w3.org/2000/svg" xmlns:xlink="http://www.w3.org/1999/xlink">
    <!-- Generator: Sketch 55.2 (78181) - https://sketchapp.com -->
    <title>icons/general/blue/add</title>
    <desc>Created with Sketch.</desc>
    <g id="icons/general/blue/add" stroke="none" stroke-width="1" fill="none" fill-rule="evenodd">
        <g id="add" fill="#93B1D6" fill-rule="nonzero">
            <path d="M23.6432623,10.7557974 L14.2441447,10.7557974 L14.2441447,1.35659072 C14.2441447,0.928418365 13.6627292,0 12.4999492,0 C11.3371691,0 10.7557537,0.928469192 10.7557537,1.35659072 L10.7557537,10.7558482 L1.35658521,10.7558482 C0.928465417,10.7557974 0,11.3372152 0,12.4999492 C0,13.6626831 0.928465417,14.2441518 1.35658521,14.2441518 L10.7558045,14.2441518 L10.7558045,23.6434093 C10.7558045,24.07148 11.3371691,25 12.5,25 C13.6628309,25 14.2441955,24.07148 14.2441955,23.6434093 L14.2441955,14.2441518 L23.6434148,14.2441518 C24.0714838,14.2441518 25,13.6627848 25,12.4999492 C25,11.3371136 24.0713821,10.7557974 23.6432623,10.7557974 Z" id="Path"></path>
        </g>
    </g>
</svg>