<?xml version="1.0" encoding="utf-8"?>
<!-- Generator: Adobe Illustrator 23.0.4, SVG Export Plug-In . SVG Version: 6.00 Build 0)  -->
<svg version="1.1" id="Layer_1" xmlns="http://www.w3.org/2000/svg" xmlns:xlink="http://www.w3.org/1999/xlink" x="0px" y="0px"
	 viewBox="0 0 2000 388.1" style="enable-background:new 0 0 2000 388.1;" xml:space="preserve">
<style type="text/css">
	.st0{fill:#001C44;}
</style>
<path class="st0" d="M286.4,148.4l-21.4,95.6c-41.8,8.7-95.6,15.4-140.4,15.4C23,259.4,0.8,217.2,13.9,160.8
	C30.1,88.5,90.7,57.3,179.5,57.3c73.4,0,122.7,15.1,113.3,63.6h-89.2c0-4.9-1.9-10.9-7.1-15.4c-5.3-4.5-13.5-7.5-27.1-7.5
	c-36.5,0-61.7,23.3-69.6,57.6c-8.3,36.9,3.4,63.6,45.9,63.6c18.4,0,32.7-2.6,41-6.4l6.4-29.4h-0.8h-48.2l44.8-41h57.6
	c0,0-34.2,13.9-41.4,16.9c-11.3,4.5-27.8,10.5-52.7,21.1c14.3-3,28.6-6.8,39.9-9.4c19.9-5.3,37.3-10.2,56.8-16.2
	c5.6-1.5,17.7-4.9,31.2-10.2c8.7-2.6,23.7-11.7,28.6-15.1c17.3-11.7,25.6-18.4,35.4-31.6c6.4-8.7,8.7-16.9,8.7-26.3
	c0-14.7-16.2-30.5-30.5-36.5c-5.6-2.3-14.3-6.4-23.7-9.4c-7.5-2.3-16.6-4.1-25.2-5.6c-22.6-4.1-47.4-4.1-48.5-4.1h-9.8
	c-1.5,0-31.2,1.5-31.2,1.5c-9.4,1.1-23,2.6-33.5,4.5c-29.7,4.5-42.5,7.5-68.9,15.4c-6.4,1.9-25.2,8.3-41.8,15.4
	C23.3,60.3,11.7,66.7,0,75v-3.8c8.7-6,15.4-10.2,19.6-12.4c7.1-4.1,16.6-9.4,36.5-18.4c32.4-14.7,78.3-28.6,119.3-34.6
	c12-1.9,38-5.3,65.5-5.6c12.4-0.4,51.9,0,82.8,7.5c16.9,4.5,31.6,9.4,42.5,17.7c12.4,9,19.9,19.6,19.9,32.7c0,1.5,0.4,9-1.5,13.5
	c-6.4,16.6-15.8,24.5-31.6,37.3c-0.4,0.4-9.4,6.8-10.5,7.5c-7.1,4.5-17.3,10.9-24.5,15.4c-7.1,4.5-17.7,9.4-21.4,11.7
	C294.7,144.2,290.5,146.5,286.4,148.4L286.4,148.4z"/>
<path class="st0" d="M587,143.5c7.1-39.1-30.5-51.6-86.9-51.6c-68.5,0-114.8,25.6-127.2,83.5c-9.8,45.5,7.1,79.8,85,79.8
	c34.2,0,75.6-5.6,107.6-12.4l17.7-81.7H480.2l-6.8,32.7H511l-4.9,23.7c-6.4,3.4-17.3,5.6-31.6,5.6c-32.7,0-41.4-21.4-35.4-51.6
	c6-27.8,25.6-46.7,53.4-46.7c10.5,0,16.9,2.6,20.7,6.4c3.8,3.4,5.6,8.7,5.6,12.4L587,143.5L587,143.5z M594.2,251.1h65.5l12-56.4
	h19.6c22.6,0,24.5,2.6,23.7,21.4l-1.9,34.6h65.1l2.6-51.9c0.8-15.4-10.5-21.1-25.6-21.4l0.4-2.3c19.9-3.4,36.9-16.6,41.4-36.5
	c7.5-34.6-17.3-42.5-59.5-42.5H626.9L594.2,251.1L594.2,251.1z M686,127.3h23.7c15.8,0,24.8,4.5,21.8,18.4
	c-3,14.7-14.7,18.8-28.6,18.8h-24.8L686,127.3L686,127.3z M799.7,251.1h65.5l33.1-155h-65.5L799.7,251.1L799.7,251.1z M894.1,251.1
	h56.4l23.7-110.6h0.4l32,110.6h92.6l33.1-155h-56.4l-22.2,103.9h-0.4l-30.1-103.9h-95.6L894.1,251.1L894.1,251.1z M1220.8,131.4
	h18.1c29.7,0,44.4,13.5,38.4,42.5c-6.4,29-26.7,42.5-56.4,42.5h-18.1L1220.8,131.4L1220.8,131.4z M1130.1,251.1h94.5
	c47.8,0,66.6-6,87.7-20.7c15.8-10.5,28.2-32.7,32.7-55.7c4.9-23.3,1.1-41.8-7.5-53.4c-16.6-21.4-45.5-25.6-91.4-25.6h-83.2
	L1130.1,251.1L1130.1,251.1z M1353.2,251.1h65.5l12-56.4h19.6c22.6,0,24.5,2.6,23.7,21.4l-1.9,34.6h65.5l2.6-51.9
	c0.8-15.4-10.5-21.1-25.6-21.4l0.4-2.3c19.9-3.4,36.9-16.6,41.4-36.5c7.5-34.6-17.3-42.5-59.5-42.5h-110.6L1353.2,251.1
	L1353.2,251.1z M1444.7,127.3h23.7c15.8,0,24.8,4.5,21.8,18.4c-3,14.7-14.7,18.8-28.6,18.8h-24.8L1444.7,127.3L1444.7,127.3z
	 M1775.1,173.6c9.8-46.7-10.5-81.7-86.6-81.7c-39.9,0-60.6,6.4-77.5,17.3c-20.7,12.4-37.3,34.6-43.7,64.7
	c-9.8,46.7,10.5,81.7,86.6,81.7c39.9,0,69.2-10.5,89.2-26.7C1758.9,216.1,1770.2,197.7,1775.1,173.6L1775.1,173.6z M1708.8,173.6
	c-6.8,31.6-25.6,46.7-47,46.7s-34.2-14.7-27.5-46.7c6.8-31.6,25.6-46.7,47-46.7C1702.8,127.3,1715.6,141.6,1708.8,173.6
	L1708.8,173.6z M1873.6,131.4h18.1c29.7,0,44.4,13.5,38.4,42.5c-6.4,29-26.7,42.5-56.4,42.5h-18.1L1873.6,131.4L1873.6,131.4z
	 M1783,251.1h94.5c47.8,0,66.6-6,87.7-20.7c15.8-10.5,28.2-32.7,32.7-55.7c4.9-23.3,1.1-41.8-7.5-53.4
	c-16.6-21.4-45.5-25.6-91.4-25.6h-83.2L1783,251.1L1783,251.1z"/>
<g>
	<g>
		<g>
			<path class="st0" d="M1563.2,298.1h38.8c7.5,0,13.5,0.4,16.9,0.8c3.4,0.4,6.8,1.9,9.4,3.8c2.6,1.9,4.5,4.5,5.6,7.5
				s1.5,6.4,0.4,10.5c-1.1,4.1-3.4,7.9-6.4,11.7c-3,3.8-7.5,6-12,7.9c5.6,1.5,9.4,4.5,11.7,8.3c2.3,3.8,2.6,8.3,1.5,13.5
				c-1.1,4.1-3,7.9-6,11.7s-6.4,6.8-10.5,9.4c-4.1,2.3-9,3.8-14.3,4.5c-3.4,0.4-11.3,0.4-23.7,0.4h-33.1L1563.2,298.1z M1579,312.8
				l-5.3,20.7h12.8c7.5,0,12.4,0,14.7-0.4c3.4-0.4,6.4-1.5,8.7-3.4c2.6-1.5,3.8-4.1,4.5-7.1c0.4-2.6,0.4-4.9-0.8-6.8
				c-1.5-1.5-3.4-2.6-6.4-3.4c-1.9-0.4-7.5-0.4-16.6-0.4L1579,312.8L1579,312.8z M1570,348.6l-6,24.1h18.4c7.1,0,11.7-0.4,13.5-0.4
				c3-0.4,5.6-1.5,7.9-3.4c2.3-1.9,3.8-4.5,4.5-7.5c0.4-2.6,0.4-4.9-0.4-6.8c-0.8-1.9-2.6-3.4-5.3-4.1c-2.6-0.8-8.3-1.5-17.3-1.5
				H1570V348.6z"/>
			<path class="st0" d="M1726.9,387.7h-21.4l-3.4-20.3h-38.8l-13.2,20.3h-20.7l60.6-89.6h20.7L1726.9,387.7z M1699.4,352.3
				l-5.3-33.5l-21.4,33.5H1699.4z"/>
			<path class="st0" d="M1737.4,387.7l22.6-89.6h19.2L1804,358l15.1-59.8h18.4l-22.6,89.6h-19.6l-24.5-58.7l-14.7,58.7H1737.4z"/>
			<path class="st0" d="M1836,387.7l22.6-89.6h19.6l-9.8,39.9l49.7-39.9h26.7l-45.5,35l24.8,54.6h-25.6l-16.2-42.1l-19.6,15.1
				l-6.8,27.1H1836z"/>
		</g>
	</g>
</g>
</svg>
