<?xml version="1.0" encoding="UTF-8"?>
<svg width="37px" height="37px" viewBox="0 0 37 37" version="1.1" xmlns="http://www.w3.org/2000/svg" xmlns:xlink="http://www.w3.org/1999/xlink">
    <!-- Generator: Sketch 55.2 (78181) - https://sketchapp.com -->
    <title>Group 3</title>
    <desc>Created with Sketch.</desc>
    <g id="14-/-15-Consent,-2FA,-T&amp;S" stroke="none" stroke-width="1" fill="none" fill-rule="evenodd">
        <g id="14.06_2FA" transform="translate(-702.000000, -325.000000)">
            <g id="Group-4" transform="translate(462.000000, 325.000000)">
                <g id="Group-3" transform="translate(240.000000, 0.000000)">
                    <circle id="Oval" fill="#001C44" cx="18.5" cy="18.5" r="18.5"></circle>
                    <g id="lock" transform="translate(12.000000, 10.000000)" fill="#FFFFFF" fill-rule="nonzero">
                        <path d="M11.0882353,5.92564655 L9.93999755,5.92564655 L9.93999755,3.33380657 C9.93999755,1.49553233 8.39627941,0 6.49882108,0 C4.60136275,0 3.05764461,1.49553233 3.05764461,3.33380657 L3.05764461,5.92564655 L1.91176471,5.92564655 C0.857617647,5.92564655 0,6.77402263 0,7.81681034 L0,14.2467672 C0,15.289555 0.857617647,16.137931 1.91176471,16.137931 L11.0882353,16.137931 C12.1423824,16.137931 13,15.289555 13,14.2467672 L13,7.81681034 C13,6.77402263 12.1423824,5.92564655 11.0882353,5.92564655 Z M4.33215441,3.33380657 C4.33215441,2.19072414 5.30412745,1.26077586 6.49882108,1.26077586 C7.69351471,1.26077586 8.66548775,2.19072414 8.66548775,3.33380657 L8.66548775,5.92564655 L4.33215441,5.92564655 L4.33215441,3.33380657 Z M11.7254902,14.2467672 C11.7254902,14.5943631 11.4396176,14.8771552 11.0882353,14.8771552 L1.91176471,14.8771552 C1.56038235,14.8771552 1.2745098,14.5943631 1.2745098,14.2467672 L1.2745098,7.81681034 C1.2745098,7.46921444 1.56038235,7.18642241 1.91176471,7.18642241 L11.0882353,7.18642241 C11.4396176,7.18642241 11.7254902,7.46921444 11.7254902,7.81681034 L11.7254902,14.2467672 Z" id="Shape"></path>
                        <path d="M6.5,9.01454741 C5.8488848,9.01454741 5.32107843,9.53666622 5.32107843,10.1807651 C5.32107843,10.5920302 5.53647059,10.9533055 5.86156618,11.1609553 L5.86156618,12.5447198 C5.86156618,12.8928516 6.1468652,13.1751078 6.49882108,13.1751078 C6.8507451,13.1751078 7.13607598,12.8928516 7.13607598,12.5447198 L7.13607598,11.1624367 C7.46247794,10.9550391 7.67892157,10.5930388 7.67892157,10.1807651 C7.67892157,9.53666622 7.1511152,9.01454741 6.5,9.01454741 Z" id="Path"></path>
                    </g>
                </g>
            </g>
        </g>
    </g>
</svg>