<?xml version="1.0" encoding="UTF-8"?>
<svg width="23px" height="24px" viewBox="0 0 23 24" version="1.1" xmlns="http://www.w3.org/2000/svg" xmlns:xlink="http://www.w3.org/1999/xlink">
    <!-- Generator: Sketch 55.2 (78181) - https://sketchapp.com -->
    <title>print</title>
    <desc>Created with Sketch.</desc>
    <g id="14-/-15-Consent,-2FA,-T&amp;S" stroke="none" stroke-width="1" fill="none" fill-rule="evenodd">
        <g id="15.01_TermsOfService" transform="translate(-937.000000, -290.000000)" fill="#93B1D6" fill-rule="nonzero">
            <g id="Group-4" transform="translate(937.000000, 290.000000)">
                <g id="print">
                    <path d="M20.8618027,7.76706311 C20.8372426,7.74791432 20.8078545,7.73345094 20.7782564,7.71939494 C20.7486584,7.70982055 20.7192702,7.70024616 20.6848441,7.69535711 C20.5916417,7.67620833 20.4931914,7.68578272 20.4048171,7.71939494 C20.3410028,7.74302528 20.2868447,7.78132285 20.2425526,7.82410197 C20.1541782,7.91006771 20.10023,8.03392352 20.10023,8.16266837 C20.10023,8.28672788 20.1541782,8.41058369 20.2425526,8.49654938 C20.2868447,8.5442176 20.3410028,8.57742232 20.4048171,8.60146015 C20.4638033,8.62529424 20.5276176,8.63935023 20.5916417,8.63935023 C20.6208199,8.63935023 20.655456,8.63466493 20.6848441,8.62977589 C20.7192702,8.62040519 20.7486584,8.61103455 20.7782564,8.60146015 C20.8078545,8.58699671 20.8372426,8.57273703 20.8618027,8.55847728 C20.8911908,8.53932855 20.915751,8.52017976 20.9405209,8.49654938 C21.0286854,8.41058369 21.0828435,8.28672788 21.0828435,8.16266837 C21.0828435,8.03392352 21.0286854,7.914753 20.9405209,7.82410197 C20.915751,7.80026789 20.8911908,7.78132285 20.8618027,7.76706311 Z" id="Path"></path>
                    <path d="M18.9062317,7.97688466 C18.8913278,7.94816148 18.8768436,7.9241237 18.8621495,7.89580797 C18.8424175,7.87177013 18.8228954,7.8481398 18.7981254,7.82410197 C18.6606308,7.69067176 18.4444181,7.64789265 18.2626314,7.71939494 C18.2036452,7.74302528 18.149697,7.78132285 18.1054049,7.82410197 C18.0122025,7.914753 17.9580443,8.03392352 17.9580443,8.16266837 C17.9580443,8.22479998 17.9727384,8.28672788 17.9972985,8.34397044 C18.0220685,8.4010093 18.0562847,8.45356651 18.1054049,8.49654938 C18.149697,8.5442176 18.2036452,8.57742232 18.2626314,8.60146015 C18.3216176,8.62529424 18.3854319,8.63935023 18.4542841,8.63935023 C18.5819126,8.63935023 18.709751,8.58699671 18.7981254,8.49654938 C18.8472455,8.45356651 18.8818816,8.4010093 18.9062317,8.34397044 C18.9307919,8.28672788 18.9456959,8.22479998 18.9456959,8.16266837 C18.9456959,8.12925985 18.9406579,8.10074047 18.9358298,8.06733194 C18.9259638,8.03881256 18.9160978,8.00540404 18.9062317,7.97688466 L18.9062317,7.97688466 Z" id="Path"></path>
                    <path d="M21.6468859,5.43458116 L18.3698982,5.43458116 L18.3698982,0.476885602 C18.3698982,0.213488306 18.1499069,0 17.8784864,0 L5.08645774,0 C4.81503721,0 4.59504597,0.213488306 4.59504597,0.476885602 L4.59504597,5.43458116 L1.31805821,5.43458116 C0.593220621,5.43458116 0.00377847547,6.00659945 0.00377847547,6.70980706 L0.00377847547,17.0079696 C0.00377847547,17.711381 0.593220621,18.2833993 1.31805821,18.2833993 L4.59504597,18.2833993 L4.59504597,23.3631172 C4.59504597,23.6265145 4.81503721,23.8400028 5.08645774,23.8400028 L17.8784864,23.8400028 C18.1499069,23.8400028 18.3698982,23.6265145 18.3698982,23.3631172 L18.3698982,18.2833993 L21.6468859,18.2833993 C22.3717235,18.2833993 22.9611657,17.711381 22.9611657,17.0079696 L22.9611657,6.70980706 C22.9611657,6.00659945 22.3717235,5.43458116 21.6468859,5.43458116 Z M5.57765955,0.953567507 L17.3872846,0.953567507 L17.3872846,5.43458116 L5.57765955,5.43458116 L5.57765955,0.953567507 Z M5.57765955,22.8862316 L5.57765955,13.7628659 L17.3872846,13.7628659 L17.3872846,22.8862316 L5.57765955,22.8862316 Z M21.9785522,17.0079696 C21.9785522,17.1854012 21.8297222,17.3298318 21.6468859,17.3298318 L18.3698982,17.3298318 L18.3698982,13.7628659 L19.9115161,13.7628659 C20.1827267,13.7628659 20.402718,13.5493776 20.402718,13.286184 C20.402718,13.0227867 20.1827267,12.8092984 19.9115161,12.8092984 L3.05342798,12.8092984 C2.78221746,12.8092984 2.56222622,13.0227867 2.56222622,13.286184 C2.56222622,13.5493776 2.78221746,13.7628659 3.05342798,13.7628659 L4.59504597,13.7628659 L4.59504597,17.3298318 L1.31805821,17.3298318 C1.13522196,17.3298318 0.986392026,17.1854012 0.986392026,17.0079696 L0.986392026,6.70980706 C0.986392026,6.5323755 1.13522196,6.38814867 1.31805821,6.38814867 L21.6468859,6.38814867 C21.8297222,6.38814867 21.9785522,6.5323755 21.9785522,6.70980706 L21.9785522,17.0079696 Z" id="Shape"></path>
                    <path d="M7.17070678,16.3895054 L13.0869597,16.3895054 C13.3583802,16.3895054 13.5783714,16.1760171 13.5783714,15.9126198 C13.5783714,15.6494262 13.3583802,15.4359379 13.0869597,15.4359379 L7.17070678,15.4359379 C6.8992863,15.4359379 6.67929506,15.6494262 6.67929506,15.9126198 C6.67929506,16.1760171 6.8992863,16.3895054 7.17070678,16.3895054 Z" id="Path"></path>
                    <path d="M15.7942374,17.8478669 L7.17070678,17.8478669 C6.8992863,17.8478669 6.67929506,18.0613552 6.67929506,18.3245487 C6.67929506,18.5879461 6.8992863,18.8014344 7.17070678,18.8014344 L15.7942374,18.8014344 C16.0656579,18.8014344 16.2856491,18.5879461 16.2856491,18.3245487 C16.2856491,18.0613552 16.0656579,17.8478669 15.7942374,17.8478669 Z" id="Path"></path>
                    <path d="M15.7942374,20.2597958 L7.17070678,20.2597958 C6.8992863,20.2597958 6.67929506,20.4732841 6.67929506,20.7364777 C6.67929506,20.999875 6.8992863,21.2133633 7.17070678,21.2133633 L15.7942374,21.2133633 C16.0656579,21.2133633 16.2856491,20.999875 16.2856491,20.7364777 C16.2856491,20.4732841 16.0656579,20.2597958 15.7942374,20.2597958 Z" id="Path"></path>
                </g>
            </g>
        </g>
    </g>
</svg>